<?xml version="1.0" encoding="UTF-8"?>
<svg version="1.1" viewBox="0 0 1080 1080" width="1280" height="1280" xmlns="http://www.w3.org/2000/svg">
<path transform="translate(249,244)" d="m0 0h118l17 3 11 5 10 6 10 9 9 13 5 12 3 13v470l-4 16-7 14-9 11-13 10-12 6-12 3-8 1h-118l-17-3-12-5-13-9-8-8-7-11-5-11-3-12v-474l4-15 8-15 11-12 13-9 12-5z" fill="#0084D7"/>
<path transform="translate(520,605)" d="m0 0h330l12 3 12 6 11 10 8 13 3 9 1 6v136l-3 12-6 12-10 11-13 8-9 3-6 1h-330l-12-3-12-6-11-10-8-13-3-9-1-6v-136l3-12 6-12 10-11 13-8 9-3z" fill="#F00001"/>
<path transform="translate(517,406)" d="m0 0h335l14 3 10 5 10 9 8 14 2 8v82l-4 13-7 10-7 7-14 7-8 2h-343l-11-3-8-4-10-9-6-8-4-10-1-4v-84l4-12 8-11 8-7 10-5 6-2z" fill="#F29901"/>
<path transform="translate(509,244)" d="m0 0h353l10 3 10 6 8 8 5 10 2 7v55l-4 11-6 9-8 7-10 5-10 2h-347l-13-3-10-6-8-8-6-12-1-4v-57l4-11 8-11 10-7z" fill="#61BF33"/>
</svg>
