<?xml version="1.0" encoding="UTF-8"?>
<svg version="1.1" viewBox="0 0 1174 858" width="1280" height="1280" xmlns="http://www.w3.org/2000/svg">
<path transform="translate(457,71)" d="m0 0h11l7 4v2h3l1 4 1 14 2 9 1 13 3 5 1 12v9l-1 1-1 12-1 9-2 4-2 15-1 5-4 13-3 7-5 13-5 3-1 8-7 13-2 4-1 4-2 2h-3l1 3-3 1v5l-6 16h-2l-3 10-7 13-2 5-1 3-4 7-4 11h-2v5l-3 2-1 6-2 4h-3l1 3-2 4h-2l-1 7-2 1-3 7-5 11h-2l-2 6v2h-2l-1 4-4 7-9 17-3 7-7 14-3 9-2 1-2 5-4 7-2 5-2 2-1 7-3 4-1 3h-2l-2 9-7 15-3 7-1 3h-2v3h-2v6l-3 5h-2l-1 4-7 14-1 4h-3v3h-2l-2 5-2 7-4 7-2 1-2 5h-2l-1 5-4 6h-2l-1 4-2 6h-2v2l-4 4-1 2h-2v3h-2l-1 4h-2l-1 4-4 9-3 24-2 22v9h-1l-1 6h2l1 6v1l-1 7 3 4v4l1 5-1 3h3l2 6 4 7 2 5 7 3h17l6-3 7-2 3-3h2l2-4 2-2h3l2-4 3-1 1-3 4-1 1-4 5-2v-3l5-3 2-4 5-5h3l3-6h2v-2h2v-3l4-2 4-7 4-2 4-7 4-2v-4h2l2-5 1-2h2v-3h2l1-4 5-7h2v-3h2v-3h2l2-5 1-4 3-5h2l2-5h2l1-4 3-4 5-10 2-5 3-4v-3l4-1-1-5 4-7 2-7 4-8 6-16 3-6 2-5 4-3 7 1 5 3 1 6h-2l-1 4-2 9-4 10-1 7-1 5-2 3-3 12-2 9-2 4-3 15-3 8-2 8-1 10v3l4-2 5-5 1-3 4-1 1-4h2l1-4 5-4 3-6 3-1 7-12 4-3 1-3h-8l-7-3v-5l-1-3 3-6 4-4h3v-2h3v-2l6-1 1-3 9-5 3-1 1-2h3l2-4 5-2h5l1-3h3v-2l15-6h4v-2l16-5 4 1 1-3 13-4 11-4 7-1 8-4 5-1 4-1 16-5 4-1 8-3h5l2 1 1-3 12-4 10-2 3-3 8-1v-1l12-4h4v-2l9-1 2-2 11-2v-2l11-4 6-3 6 1 2-4 7-2 1-2 5-2h3l3-9 3-1 2-6 4-5h2l1-4h2v-3l7-3h10l1 2h-2v2h5l2 8-2 9-5 6-10 8-10 3-1 5h-2l1 2 7-1h12l5-2 11-2 26-3 19-4 6-2 20-3 13-3 15-2 10-2h10v-2l12-3h7l8-1 9-3h9l11-1 5-1 8-1 29-2h17l4 2 1-1h9l9 3 1 3 10 4 1 3 2 1v6l-1 2h40l4 3 1 6h-2l-1 5-12 3-10 5-3 5-9-3v-2h2l1-5 2-4h-10v7l-2 2v8h-3v2l3 1-1 3 3 4h-2l-2 5 1 2v8l-2 1-1 5-6 10-2 4h-2l-1 4-6 8h-2v2l-4 3-1 3-3 2h-3v3h-3l-1 4h-2l-1 4-7 6-7 4-4 2-9-1-5-2v-2l-7-2-2-8v-3l-4-1-2 4-1 1v6l-5 2-2 4-8 4h-19v-4l-6-1-3-7-1-7-5 2-3 6-2 5-5 4-2 5-3 3h-2l-1 4-5 6h-5v3h-9l-7-3-2-5-2-1-3-10-1-1 1-7-3-1v-6h-7l-2 10-4 4h-2l-1 5-4 4v1 2h-2l-2 8h-2l-4 8-7 4-10 1-6-5-1-5h-2l-4-12-2-4v-3l-4-1-2-4-5-1v2h-3l1 5-2 5-3 1 1 3-3 7h-2l1 4-4 7h-2l-1 7-3 3-2 5-5 6-1 5-3 2-4 1 2 6h-3v2l-4 2h-8l-1-3h-2l-2-5-3-2-1-8-1-5v-9h-2l-1-9-1-2-1-10-1-6h-7l-8-5v-2h-3l-3-5-2-5-1-12-7 5-3 4h-2l-1 6h-4l-2 5-4-1-1 2-7-1-6-3v-2h-2l-2-6-4-1-7 1-2 5-8 7-4-1v6l-5 2-4 4h-11l-8-6-2-9-10 4v5l-3 1-3 5h-2l-1 3-5 5-6 4-2 4-6 4-9-1-4-2-1-5-3-1-1-7-1-13-10 3-4 8-3 3h-2v3l-4 4-2 3h-2v4l-5 5-4 3-5 3-4 2h-12l-5-3-4-16v-11l3-5h-4l-1 4-4 4-2 5-3 1-2 5-5 5-4 6-3 3h-2l-2 4-3 1v3l-3 3-1 2h-2l-2 4-4 5-5 2v2h-3l-1 4-3 1h-12l-2-1v-2l-4-1-1-4v-7l1-3h-2l3-19 2-3v-5l-2-1-1 4-7 9-3 1 1 3-7 9-5 6-4 8h-2v3h-2l1 3-6 9-5 6-1 2h-3v5l-4 1v2h-2v2l-2 1-1 3h-2v2h-2v3h-2v2h-2l-2 5-11 9-20 20-8 7-3 3h-2l-2 4-9 3v2l-10 4-10 1-5-2-1-1-7-1-8-8-8-10-6-13v-4h-2l-1-5v-11h-2l-2-17v-24l1-10 2-1v-2h-4l-2 4h-2v3l-8 7-5 6-3 1-2 5-4 1v2l-4 4-6 2-1 4-5 3-1 2h-2v2l-7 6h-2v2l-3 1-1 3h-3l-1 3-7 6h-2l-1 3-4 4-8 4-7 8-5 3-1 2-8 3-21 21-3 2h-3v2l-6 3-3-1 2-13 3-4 2-4 4-3 9-5 4-2 2-4 6-4 2-2h3l1-3 4-2 7-7h2l1-3 3-2 4-4 14-11 9-8 2-3h3v-2h2l1-4 5-2 7-9 7-4 2-4 16-16 2-4 10-10h3l-1-4 5-6 5-12 2-13 1-1 1-10 3-9 2-11 1-3 2-7 1-1 2-12 1-2 1-8 1-2h2l-1-7h2l-1-7h2l1-10 2-4v-5l2-1v-9l2-7 1-1 2-11 1-8 2-7 1-8 2-6 3-15 3-7 2-11 3-12h2v-10l2-2 3-15 2-7 1-3h2l-1-4 2-7 1-3 3-6 4-18 4-7 4-14h2l-1-4 1-4 2-1 4-13 7-18 9-22 6-13h2v-8l3-3 2-4h2l1-11 5-5 5-12h3v-6l2-6h3l1-6 3-7 5-8 1-3h3v-3h2l3-10 4-5 2-4h3l2-8h2v-2l4-1 1-4 1-2h2l2-4 9-10 2-5h3l2-4 5-5zm-2 19-4 4v2h-3l-1 3h-6l-6 10-8 14-3 1-5 10-2 1-1 4-2 1-1 6h-2l-3 5-2 2-1 7h-3l-3 5-3 7-3 9h-2l-3 5-1 9h-2l-12 24-3 8-2 2-4 11-3 6-5 14-4 10-1 5-2 1-1 5-3 5-3 9-4 10v4h-2l-4 11-3 15-4 8-3 12-2 4-7 28-2 5-1 9-4 1-5 18-4 18 1 5-3 15-1 4 1 2h-2l-2 7-1 14-3 9-4 15-5 23v5h-2l-1 7-2 5-1 7v10l-2 1-3 11-1 9h3l2-4v-3h2l6-10 5-9v-3l3-1 4-7 2-6h2l4-9 4-6 3-7 4-7 3-7 4-8 4-11 3-4v-5h2l1-6 5-11 4-9 9-19 5-8 3-7 3-6 4-10 4-7 2-1 4-10 3-4 1-7h3l3-9 5-9 1-4 5-8v-2l2-1 8-16v-3h2l1-3 2-2v-2l3-7 4-10 5-8 4-11 7-14 2-8 3-1 3-9 3-5 3-8 5-9 1-1v-5l2-1-1-2h2l2-6 2-1 2-7 4-10 5-17 2-13 1-8 1-1 1-9v-10l-3-22-2-7-2-6 1-2-3-8zm-23 7m-20 24m9 7m52 8m-11 58m-80 1m76 14 1 2 1-2zm-98 11 1 2zm100 3m-28 37m-11 22m-7 16m-87 1m3 27 1 2zm-19 22m-3 13m10 3m55 22m-73 1m64 21m-7 30m-60 3 1 2zm487 8m-500 4m54 0m676 2-14 2-24 1-29 3-18 3-23 5-9 1-2 1v2l17 1 11-1 25-1 11-1h9l14-2v1h8l1-1h10v-1h30l4-1 2 1h7l9-1 1-5-6-1-1-2-4-2-10-2zm-679 9m506 4m170 4-2 1 1 4 9-1 10-2v-2zm95 0m-111 1-1 2h4v-2zm-665 3m642-2-8 1-14 1-3 1h-19l-11-1-2 2-4-1h-11l-3 1v2l-5-2-8 1-10-1-4 1-2-1-1 4 11-1v2l5 2h19l4-1v-2h12l9-2 3 1h23l7-2 12-1 1-4zm-646 3m536 0-2 1v2l-6-2-2 2 1 4h8l5 1h10v-2h-7l-4-2v-4zm-525 1m481-1-6 1 5 7 4 1 8-3v2h14l7-3-3-3-10-1-2 5-2 1 1-4-4-2zm231 1-48 2-36 2-7 2-27 2h-14l-15 2-20 1h-36l-34 2-21 2-10 2-15 2-3 1-9 1-2 1-3 11-1 11-1 19 2 1h6l4-3 14-2 7-3 13-3 11-3 2-1 1-8-1-2 7-2 1-3 6 1 3 10 4 1 27-5 5-1h11l5-4 1-4 4-2 9 1-2 5 2 1 16 1 20 3h10l3-1v2l5 2 1 2v10l1 4-2 5 1 14 3 12 4 2 7-1 4-2 4-8 2-5 2-4v-5l2-6 1-1v-7h2l-1-4 1-1v-5l2-4v-2l3-3v-4h6l1-1 1 2h3v6h2v2h-2v2h2l-1 8v19l2 13 1 6 2 1h8l5-3h3v-3h2v-2l4-1 1-2 5-2v-3l4-2 2-4 3-1v-2l3-1 2-2 1-2 2-1 7-11 3-10 2-3-1-4 3-3-2-6 1-6v-5h3v-3h-3l2-4 2-2zm-723 3 1 2 1-2zm412-1-4 2 4 2 2-1v-3zm62 0-12 2-3 1v2h5l-7 1-2 3 4 1 6-2 3-3 12-3 1-2zm-83 2m90 0m-530 1m486 0-4 2v3h2v4h10l2-2 4 1 4-2-1-3h-9l-1 3-4 1v-7zm37 1-7 2 4 2 6-1h6l2-2-1-1zm12 1-1 2 4-1zm-478 1m356 3m-416 10m453 5-4 1h-2v2h-17l-11 1v2l-11-1v-4l-7 1v2l-8 1-10 3-8 3-9 3-16 5-12 4-1 1-9 2-10 4-12 3h-2v2l-9 1v2l-9 1-8 4-16 5-5 3-8 4-8 5-9 3v4l4 2h4l1 7 3 1 17-1 8-1 5-5 1-4 5-1h8l8 5 10 1 17-4 9-2 6-5v-2h3l3-4-1-3h2v-2l10 3 6 9h8l4-3 9-3 1-2 3-1 2-7h2v-3h3v-2l7-1 2 1 4-1 1 7 2 4-2 4 15-2 12-4v-2l5-2 1-4 3-1v-2l9 3 2 2 5-1v-27l1-8 1-5-5-1zm-85 1m4 0m5 0 3 2v-2zm-13 1m-356 2m596 0m5 0m-257 3m108 0m-423 1m586 19-7 1-2 2-1 6v10l4-2 14-3 4-3 13-6 1-3-9-2zm-34 1-5 2-28 4-5 2-1 4 1 3h-2v4h2l-2 15-1 7 1 2h6l9-5 7-2 4-2 7-4v-3l5-2 2-9 2-5 3-10zm-339 11m-84 2m309 1v4l-2 1 4 3 1-1-1-7zm47-2-14 3-9 3 3 9-2 1v4h2l-1 5 2 3 6-1v-2l5-2v-2h2l5-7 1-5 2-5-1-4zm-131 4m255 1-13 4v2l-10 3v2l-7 1-2 3 1 6h2l-1 7v10l5 1 6-1 3-6 2-1v-3h2l2-5 4-2 1-5 3-3 2-9 2-1zm-192 4-6 2-1 2h5l5-4zm-13 1-4 2 2 4h5v-4-2zm-89 2m77 0-11 3-6 2-1 2h5l2 4 6-2 3-2-2-4 5-1zm4 1-2 4h5v-4zm212 1m-190 3v10l-1 1v7h6l1-4h-2l1-7v-7zm-47 2-3 2 1 3h5l1-3-1-2zm-22 1 1 3 6 1 2-1v2h6l1-4h-8l-1-1zm-10 1v2l8 1v-2l-2-1zm27 0 1 2zm333 0m-362 2m13 1 1 3h6v-2zm-15 0-7 1-1 2-1-2-3 2 1 5 9-1 7 1 1-2-4-1-1-5zm-17 2m-2 1m-370 2m333 1v2h-4v2l4 1h4v-3l2-1-1-1zm23 0-2 3h-5v2l2 1h6l1-3v-3zm146 1-2 1v4l-3 1-3 5-1 10v10l2 7 1 18 1 7 3 2 5-5 3-8 2-1v-4h2l2-5 3-6v-2h2l1-8 3-1 2-8 2-5h-15l-6-7h-2l-1-5zm-161 2m18 0m-20 1 1 3zm5 0m3 0m-318 2m293-2v2l-5-1-4 4 7 2 9-1 1-5-3 1zm357 2m-344 1 2 2v-2zm-26 0-8 1 1 5 10-2v-3zm29 1m-68 1 4 2 4-1zm10 1m2 0m4 0-1 2h-2v3h6l5-1-1-3zm-62 0-5 2 1 2h2l1 2h8l5-1 1-3h-9l-4 2 1-4zm35 1v2l-4 1v2l14 2h5l-1-4h-4l-1-2zm325 0-6 4-6 2-1 4 2 4 6-1v-2h2l3-3v-4l4-2v-2zm-345 1v3h5v-3zm7 0 1 4 3-1-1-3zm49 0m-76 4m99 0 1 4h6l1-4zm-322 2m490 3-2 1v5l4-2v-4zm-222 1-9 1-3 2v12l9-2 3-3v-2l3-1 3-5v-2zm102 2m-372 1m566 7m-324 2m-55 4 1 2zm382 1m-360 3m315 16m-519 4 1 3zm488 7 1 2zm-530 12m538 0m-365 7m-3 5 1 2zm-40 35 1 2z" fill="#09090C"/>
<path transform="translate(937,461)" d="m0 0h10l-4 2-10 1-27 6-11 1v2h17l11-1 25-1 11-1h9l16-2v1h6l1-1h8v-1h32l4-1 2 1h7l10-1v2l-22 3h-1l-1 4-2 1h-9v-1l10-1v-2l-7 1h-13l1 3 4 2h14l10-1 11 1v1l-48 2-36 2-7 2-27 2h-14l-15 1v-2h-37l-3-2 14 1v-2l-7 1-2-2 11-1v2l5 1h23v-2l4-1h8l9-2 3 1h23l7-2 12-1v-2l-8 1-14 1-3 1h-19l-11-1-2 2-4-1h-14v2l-6-2v-1l6-1-4-3 2-4 29-5zm58 12-1 2h4v-2z" fill="#0E0D11"/>
<path transform="translate(670,542)" d="m0 0h5l5 1 3 8v4l-2 3 5-2 10-1 9-3 2 1-1 1 7-1 2 2-3 2 1 4-3-1-1-2-2 2 2 1-9 3v2l-3 2h-9l-3 2-17 1v-2h-6l-1 2-7-2h-4l2 5-4-1-2-4-4 1 1-3h4l-1-2-1 1h-8l1-2 7-1 2-2 9-2 1-3h3l1-5 1-2h2v-3h3v-2zm-5 6m38 8-11 3-6 2-1 2h5l2 4 6-2 3-2-2-4 5-1zm-21 7-3 2 1 3h5l1-3-1-2zm-22 1 1 3 6 1 2-1v2h6l1-4h-8l-1-1zm-10 1v2l8 1v-2l-2-1zm27 0 1 2z" fill="#0B0A0E"/>
<path transform="translate(621,638)" d="m0 0 5 1 6 2v2h7l5 4 1 5-1 3h-2v2h-2v2l-5 2-4 4-5 1h-8l-3-1v-2l-4-2-2-2 1-9 3-7 1-2zm9 13-1 2 4-2z" fill="#09080C"/>
<path transform="translate(823,471)" d="m0 0 2 2-1 1-8 1 18 2 13-1 5 1 5-1h22l1 2-10 2-1 1-2 1h-6l3-2 1-3-5 1v2l-6-1-1 5-10 1 6-4-12-3-2 6h-2l-1-4-10-2-9 1 4 4v2l8-1v2l-2 1h-8l-5-2h-10l-7 1 1-2 12-3-15 1-6 1v2l6-1-1 2-7 1-3 2v-3l-4 1-9 1 1-6h-3v-3h12l5-2 11-2 26-3z" fill="#07070A"/>
<path transform="translate(1075,596)" d="m0 0h9l6 2 3 3 1 11-3 3-2 5-6 2h-7l-7-2-1-7-2-5 1-5 5-2v-4z" fill="#0B0A0E"/>
<path transform="translate(969,477)" d="m0 0 3 1-2 1v2h17v1l-22 1-7 2-27 2h-14l-15 1v-2h-37l-3-2 14 1v-2l-7 1-2-2 11-1v2l5 1h23v-2l4-1h8l9-2 3 1h23l7-2z" fill="#201E24"/>
<path transform="translate(937,461)" d="m0 0h10l-4 2-10 1-27 6-11 1v2h17l11-1 6 1h13l10-1h14l-2 4-14 1-3 1h-19l-11-1-2 2-4-1h-14v2l-6-2v-1l6-1-4-3 2-4 29-5z" fill="#201E24"/>
<path transform="translate(554,568)" d="m0 0h8l6 4 3 3h10l7-1-4 4-11 1-11 2-4 1-2-1-1 3-9-1h-10l1-3h6l1-3h2l2-4 1-3z" fill="#07070A"/>
<path transform="translate(825,483)" d="m0 0h4v2l32-2 4 2h35l2 1v2l-21 1h-53l-5 1-20 1v-3l22-2z" fill="#07070B"/>
<path transform="translate(705,552)" d="m0 0 2 1-1 1 7-1 2 2-3 2 1 4-3-1-1-2-2 2 2 1-9 3v2l-3 2h-9l-3 2-17 1v-2h-6l-1 2-7-2h-4l2 5-4-1-2-4-4 1 1-3h4l1-3h12l3 3h6v2l6-1 2-5 7-3h3v-2l-4-1 13-2zm-2 4-11 3-6 2-1 2h5l2 4 6-2 3-2-2-4 5-1zm-21 7-3 2 1 3h5l1-3-1-2zm-32 2v2l8 1v-2l-2-1zm27 0 1 2z" fill="#2E2D32"/>
<path transform="translate(823,471)" d="m0 0 2 2-1 1-8 1 18 2 13-1 5 1 5-1h22l1 2-10 2-1 1-2 1h-6l3-2 1-3-5 1v2l-6-1-1 5-10 1 6-4-12-3-2 6h-2l-1-4-10-2h-9v-2l-11 1h-8l-2 1-14 2v-2l15-3 26-3z" fill="#36353A"/>
<path transform="translate(535,579)" d="m0 0h8v1l-6 1-1 2 13-1 6 1 1-2h2l1 5-6 3h-7l1-2 3-1-7-2-1 3-2-1v3l3-1v2l-4 2h-8l-1-4-4 1-1-3-9-1v2l-3-1 2-2 8-1-8-1 1-2h9zm-8 4 4 2 4-1z" fill="#28272C"/>
<path transform="translate(802,486)" d="m0 0h9l4 2-12 1v1l20-1 6-1h73v1l-20 1h-36l-34 2-21 2-10 2-15 2-3 1-5-1 3-2 19-2 12-3 6-1-1-2z" fill="#252329"/>
<path transform="translate(597,570)" d="m0 0h6l-2 2h-3v3l4-1 3 2 4-1h2v-2h5l2 3-1 4h-3l1-1-2-2h2v-3h-2l-2 4-5 1 2 1-4 1-4-2-2 5h-6l-2-3h-2v3l-2-1 1-4h-2l-1 2-4-2 4-2 1-2-4 1h-10l-3-3 12 1zm-7 4v2h-4v2l4 1h4v-3l2-1-1-1zm8 3m18 0m-20 1 1 3zm8 0m-12 3 2 2v-2z" fill="#2B292E"/>
<path transform="translate(937,461)" d="m0 0h10l-4 2-10 1-27 6-11 1v2h10l6 1 1 2 4 2-4 1-1-1h-14v2l-6-2v-1l6-1-4-3 2-4 29-5z" fill="#252329"/>
<path transform="translate(803,478)" d="m0 0h9l5 5v2l8-1v2l-2 1h-8l-5-2h-10l-7 1 1-2 12-3-15 1-6 1v2l6-1-1 2-7 1-3 2v-4l3-1 2-3 8-2z" fill="#343238"/>
<path transform="translate(909,481)" d="m0 0 35 1-2 3-20 1h-17l1-4z" fill="#060509"/>
<path transform="translate(823,471)" d="m0 0 2 2-1 1-8 1 17 2v3l-13-2h-7v-2l-11 1h-8l-2 1-14 2v-2l15-3 26-3z" fill="#2C2A30"/>
<path transform="translate(980,468)" d="m0 0 4 1-11 4-1 2-6 1-1-2 1-2-24 2h-13l1-2 18-1 11-1h9z" fill="#232127"/>
<path transform="translate(969,477)" d="m0 0 3 1-2 1v2h17v1l-22 1-3 1h-9l1-5z" fill="#29272D"/>
<path transform="translate(952,472)" d="m0 0h14v2l-10 1h-7l-3 2-23-1-3-2 22-1z" fill="#040407"/>
<path transform="translate(1034,466)" d="m0 0 3 1h7l10-1v2l-22 3h-1l-1 4-2 1h-9v-1l10-1v-2l-7 1h-8v-1l7-1 2-3z" fill="#3E3C42"/>
<path transform="translate(924,479)" d="m0 0 6 1h17l6 1v3h5v1l-17 1 2-3-25-1 3-2z" fill="#2B292F"/>
<path transform="translate(877,460)" d="m0 0h7l-1 2-11 2-9 2-15 2-6 2h-2-8v-1l8-2 10-2 14-2z" fill="#201E24"/>
<path transform="translate(648,564)" d="m0 0h12l3 3h6v2h-7l-1 2-7-2h-4l2 5-4-1-2-4-4 1 1-3h4zm2 1v2l8 1v-2l-2-1z" fill="#323136"/>
<path transform="translate(685,563)" d="m0 0h5l2 3 8-2v2l-3 2h-9l-3 2-17 1v-2l7-1 2-2 4 1h4z" fill="#28262C"/>
<path transform="translate(482,584)" d="m0 0h17l8 1-1 2-3-1 1 4h-16v-1h5v-2h-8l-4 1zm14 2v3h5v-3z" fill="#2C2A2F"/>
<path transform="translate(611,573)" d="m0 0h5l2 3-1 4h-3l1-1-2-2h2v-3h-2l-2 4-5 1 2 1-4 1-4-2-1 2h-2v-3l5-4 3 2 4-1h2z" fill="#4C4B4F"/>
<path transform="translate(948,447)" d="m0 0 9 1v1l-9 2-12 2-12 1h-10v-1l13-2 12-1z" fill="#232127"/>
<path transform="translate(1075,596)" d="m0 0h9l6 2 3 3 1 11-3 3-1-2 1-7-2-5-4-2h-11l-2-2z" fill="#2A282D"/>
<path transform="translate(823,486)" d="m0 0 5 2v1l-5 1-20 1v-3z" fill="#040407"/>
<path transform="translate(1020,453)" d="m0 0 19 1 9 3 5 5-7-2-2-2-11-2-19-1v-1z" fill="#2B292E"/>
<path transform="translate(619,553)" d="m0 0 7 1 5 3 4 8h-2l-2-3v-3l-5 1-2-1-1-3h-4l-1 3-1-4h2z" fill="#232127"/>
<path transform="translate(653,500)" d="m0 0 5 1-1 2-8 4h-3-6l-2-2 9-3 5-1z" fill="#232127"/>
<path transform="translate(803,478)" d="m0 0 4 2-16 2-6 1v2l6-1-1 2-7 1-3 2v-4l3-1 2-3 8-2z" fill="#2F2D33"/>
<path transform="translate(558,580)" d="m0 0m-2 1h2l1 5-6 3h-7l1-2 3-1-4-3 3-1 6 1z" fill="#27252B"/>
<path transform="translate(976,520)" d="m0 0m-2 1h2v12l-4 14-1 6-2-2v-5l2-6 1-1 1-7h2l-1-3-2-2 2-1z" fill="#302E33"/>
<path transform="translate(573,578)" d="m0 0h6v2l-7 1 1 1v2l2 1-1 1h-7v-3l-1-1h-5l1-2z" fill="#413F45"/>
<path transform="translate(1061,511)" d="m0 0 2 1v8l-2 1-1 5-6 10-2 4-1-3 4-7 3-6z" fill="#28262C"/>
<path transform="translate(872,481)" d="m0 0h6v2l6 2v1h-19l-3-2 14 1v-2l-7 1-2-2z" fill="#242228"/>
<path transform="translate(980,468)" d="m0 0 4 1-11 4-1 2-6 1-1-2 1-3 9-2z" fill="#2B292F"/>
<path transform="translate(725,551)" d="m0 0 7 1-1 2-8 1-1 1 4 2-6 2-2-1 1-2-2-1 1-2-2-1h9z" fill="#242228"/>
<path transform="translate(734,512)" d="m0 0 1 4v16l-1 14-2-1v-27z" fill="#242228"/>
<path transform="translate(929,472)" d="m0 0m-11 0 11 1v1l-8 1-1 2h-8v-4z" fill="#1C1B20"/>
<path transform="translate(1093,465)" d="m0 0h10l4 3 1 6h-2l-1 5h-2l1-10-7-2z" fill="#2D2C31"/>
<path transform="translate(349,428)" d="m0 0 1 2-4 4 1-4zm-4 6 1 2-1 3 1 4-5 4-3 3 3-9z" fill="#323036"/>
<path transform="translate(810,590)" d="m0 0 3 3 5 12 2 5-1 4-1-5h-2l-4-12-2-4z" fill="#333137"/>
<path transform="translate(878,507)" d="m0 0 9 1 2 1-1 3-7-1-6 2v-3z" fill="#333137"/>
<path transform="translate(1034,466)" d="m0 0 3 1h7l10-1v2l-22 3-3-1v-2z" fill="#242228"/>
<path transform="translate(157,723)" d="m0 0 2 1-5 3-7 8-5 3-1 2-3-1 16-15z" fill="#201E24"/>
<path transform="translate(782,493)" d="m0 0h6l-3 2-9 2-10 1-3 1-5-1 3-2 19-2z" fill="#2A282D"/>
<path transform="translate(466,574)" d="m0 0h2l-2 4-2-1zm-4 4h2v6h-2l1 8h-3v-5l-1-3z" fill="#37363B"/>
<path transform="translate(711,571)" d="m0 0h2l3 11v3h2l2 6h-3l-3-5-2-5z" fill="#2A282E"/>
<path transform="translate(613,643)" d="m0 0 2 1-1 1-1 12 1 4 1 2-4-2-2-2 1-9z" fill="#201E24"/>
<path transform="translate(848,596)" d="m0 0h4v2h-2l-2 8h-2l-4 8-3 1v-2h2l2-6 4-7z" fill="#3A383E"/>
<path transform="translate(1009,468)" d="m0 0h14l-2 4h-7z" fill="#0E0D11"/>
<path transform="translate(627,508)" d="m0 0h5l-4 3-13 4h-8v-1l11-2 2-2z" fill="#2A282E"/>
<path transform="translate(865,476)" d="m0 0h14l1 2-10 2-1 1-2 1h-6l3-2z" fill="#504F54"/>
<path transform="translate(272,548)" d="m0 0 2 1-1 7-1 10-2 4h-1l1-12z" fill="#252329"/>
<path transform="translate(720,591)" d="m0 0 6 3 5 1 5 2 1 7-2-3v-3h-7l-8-5z" fill="#312F34"/>
<path transform="translate(131,729)" d="m0 0 3 1-8 6h-2l-2 4-5 4h-2v-2l4-3h2l2-4 6-4z" fill="#252329"/>
<path transform="translate(761,480)" d="m0 0h4v2h3l-1 6 3-1v2l-4 1-1-5 1-2-5 1v-2l-3-1z" fill="#201E24"/>
<path transform="translate(658,564)" d="m0 0h2l3 3h6v2h-7l-1 2-5-1v-2h2v-2l-2-1z" fill="#4A484D"/>
<path transform="translate(717,541)" d="m0 0 8 1 1 2h-7l-4 1 1 3-7 4-1-2 4-2 2-5h3z" fill="#2C2A2F"/>
<path transform="translate(314,503)" d="m0 0h2l-1 5-3 5v6l-5 2 3-10 3-4z" fill="#2C2A2F"/>
<path transform="translate(297,394)" d="m0 0 2 1-1 7 1 5-2 3h-3l1-6z" fill="#1F1D23"/>
<path transform="translate(700,485)" d="m0 0 3 1-5 4h-11l2-2 5-1z" fill="#26242A"/>
<path transform="translate(635,658)" d="m0 0 2 1-5 6-6 1h-8l-3-1v-2l10 1 7-3z" fill="#333136"/>
<path transform="translate(817,479)" d="m0 0 7 2 1-2 6 2 1 2-4-1-11 1-1-2z" fill="#464449"/>
<path transform="translate(877,460)" d="m0 0h7l-1 2-11 2-5 1v-3z" fill="#26242A"/>
<path transform="translate(469,113)" d="m0 0 2 4 1 1v17h-1l-2-16z" fill="#26242A"/>
<path transform="translate(431,94)" d="m0 0 3 2-1 4-6 2-4 2 4-6z" fill="#201F24"/>
<path transform="translate(601,574)" d="m0 0 3 1v2h2v2l2 1-4 1-4-2-1 2h-2v-3z" fill="#6C6B6F"/>
<path transform="translate(742,634)" d="m0 0 2 3 3 9-1 3-3-2-1-8-1-3zm2 9 1 2z" fill="#27252B"/>
<path transform="translate(273,503)" d="m0 0 1 4-4 16-2-4v-3h2l1-10z" fill="#201E24"/>
<path transform="translate(1074,482)" d="m0 0 1 4v3l5-1v4l-9-3v-2h2z" fill="#3C3B40"/>
<path transform="translate(924,479)" d="m0 0 13 2v1h-19l3-2z" fill="#353339"/>
<path transform="translate(423,278)" d="m0 0 1 3-5 12h-1v-6l4-8z" fill="#353339"/>
<path transform="translate(382,650)" d="m0 0h2l-2 6-6 8-1-4h2l2-5 1-2h2z" fill="#2E2D32"/>
<path transform="translate(761,578)" d="m0 0 4 1 3 4v2l5 1v2l-5-1-2-3-3-2z" fill="#454348"/>
<path transform="translate(909,551)" d="m0 0h6l-3 2h-5v2l-3 2h-5v-2z" fill="#2E2D32"/>
<path transform="translate(954,480)" d="m0 0h8l-1 3-8 1z" fill="#040407"/>
<path transform="translate(471,146)" d="m0 0h1v13l-2 1-1 3h-1l1-8 1-1z" fill="#37353A"/>
<path transform="translate(651,560)" d="m0 0 2 1-8 5h-8l1-2 7-1 2-2z" fill="#37363B"/>
<path transform="translate(1038,538)" d="m0 0 2 2-10 10-2-2 3-1v-2l5-4z" fill="#302E34"/>
<path transform="translate(453,527)" d="m0 0 5 1 4 2 1 6h-2v-5l-7-1z" fill="#201E24"/>
<path transform="translate(853,518)" d="m0 0h6l-2 2-9 2h-6v-2z" fill="#28262C"/>
<path transform="translate(854,476)" d="m0 0h11l-3 2h-2v2l-5-1z" fill="#28262C"/>
<path transform="translate(372,382)" d="m0 0h2l2 5-7 2 1-4z" fill="#38373C"/>
<path transform="translate(558,580)" d="m0 0m-2 1h2l1 5-5 2-1-4z" fill="#4A494E"/>
<path transform="translate(589,577)" d="m0 0m-4-1 1 2 3 1-1 5-2-1 1-4h-2l-1 2-4-2 4-2z" fill="#424045"/>
<path transform="translate(502,552)" d="m0 0 2 1-9 7h-4l1-2h3l2-4z" fill="#312F34"/>
<path transform="translate(818,476)" d="m0 0h9l7 2-2 2-10-2z" fill="#201E24"/>
<path transform="translate(469,162)" d="m0 0 2 4-1 5-2 5h-1v-7z" fill="#1E1D22"/>
<path transform="translate(901,479)" d="m0 0h6l-1 2-9 1v-2z" fill="#2A282E"/>
<path transform="translate(880,481)" d="m0 0h9l-2 2h-7z" fill="#4C4B4F"/>
<path transform="translate(696,561)" d="m0 0v3l-4 1-1-3z" fill="#454348"/>
<path transform="translate(839,480)" d="m0 0h2v2l-3-1z" fill="#A5A5A7"/>
<path transform="translate(261,720)" d="m0 0" fill="#201E24"/>
<path transform="translate(395,652)" d="m0 0 2 1-2 1z" fill="#201E24"/>
<path transform="translate(518,587)" d="m0 0 2 1-2 1z" fill="#B4B4B6"/>
<path transform="translate(762,487)" d="m0 0 2 2h-2z" fill="#6A696D"/>
<path transform="translate(890,481)" d="m0 0 3 1z" fill="#201E24"/>
<path transform="translate(267,732)" d="m0 0" fill="#8F8E91"/>
<path transform="translate(812,511)" d="m0 0" fill="#201E24"/>
<path transform="translate(774,488)" d="m0 0" fill="#fff"/>
<path transform="translate(791,483)" d="m0 0 2 1z" fill="#8F8E91"/>
<path transform="translate(911,479)" d="m0 0" fill="#201E24"/>
<path transform="translate(918,478)" d="m0 0 2 1z" fill="#8F8E91"/>
<path transform="translate(486,607)" d="m0 0" fill="#201E24"/>
<path transform="translate(544,587)" d="m0 0" fill="#fff"/>
<path transform="translate(504,587)" d="m0 0" fill="#fff"/>
<path transform="translate(487,587)" d="m0 0" fill="#fff"/>
<path transform="translate(565,584)" d="m0 0" fill="#fff"/>
<path transform="translate(762,581)" d="m0 0" fill="#fff"/>
<path transform="translate(578,581)" d="m0 0" fill="#fff"/>
<path transform="translate(591,577)" d="m0 0" fill="#fff"/>
<path transform="translate(670,567)" d="m0 0" fill="#fff"/>
<path transform="translate(939,518)" d="m0 0" fill="#fff"/>
<path transform="translate(763,486)" d="m0 0" fill="#201E24"/>
<path transform="translate(894,481)" d="m0 0" fill="#201E24"/>
<path transform="translate(854,481)" d="m0 0" fill="#201E24"/>
<path transform="translate(848,481)" d="m0 0" fill="#201E24"/>
<path transform="translate(950,479)" d="m0 0" fill="#201E24"/>
<path transform="translate(1016,474)" d="m0 0" fill="#fff"/>
</svg>
